<svg width="88" height="22" viewBox="0 0 88 22" fill="none" xmlns="http://www.w3.org/2000/svg">
<path d="M0.00387232 20.6992H2.43387L4.40487 15.5962H12.5589L14.5299 20.6992H16.9059L9.53487 1.79922H7.42887L0.00387232 20.6992ZM8.48187 5.03922L11.7219 13.4362H5.24187L8.48187 5.03922ZM16.97 10.2772H19.4V17.1082C19.4 19.8622 21.371 21.0232 23.153 21.0232C23.882 21.0232 24.665 20.8612 25.745 20.2672L24.908 18.4042C24.908 18.4042 24.179 18.9172 23.477 18.9172C22.262 18.9172 21.668 18.2152 21.668 17.0002V10.2772H25.556V8.22522H21.668V4.41822H19.4V8.22522H16.97V10.2772ZM28.2673 20.6992H30.5353V0.287218H28.2673V20.6992ZM38.9996 7.90122C36.2726 7.90122 34.3286 9.17022 34.3286 9.17022L35.2736 11.0602C35.2736 11.0602 37.1096 10.0072 38.9996 10.0072C39.9986 10.0072 42.1586 10.3582 42.1586 12.9502V13.6252C42.1586 13.6252 40.7006 12.5992 38.4056 12.5992C35.5976 12.5992 33.4646 14.3272 33.4646 16.7572C33.4646 19.4572 35.8676 21.0232 38.1086 21.0232C40.9436 21.0232 42.3476 18.8902 42.3476 18.8902V20.6992H44.4266V12.4912C44.4266 10.1692 42.6716 7.90122 38.9996 7.90122ZM38.5946 19.0252C37.1906 19.0252 35.7326 18.3772 35.7326 16.7572C35.7326 15.4612 36.9476 14.4892 38.8916 14.4892C40.9166 14.4892 42.1586 15.3802 42.1586 15.3802V17.1352C42.1586 17.1352 40.8086 19.0252 38.5946 19.0252ZM53.395 7.90122C50.695 7.90122 49.561 9.98022 49.561 9.98022V8.22522H47.455V20.6992H49.723V12.1132C49.723 12.1132 50.803 10.0072 52.828 10.0072C54.502 10.0072 55.825 10.9252 55.825 13.0582V20.6992H58.093V12.6802C58.093 9.60222 55.879 7.90122 53.395 7.90122ZM60.0615 10.2772H62.4915V17.1082C62.4915 19.8622 64.4625 21.0232 66.2445 21.0232C66.9735 21.0232 67.7565 20.8612 68.8365 20.2672L67.9995 18.4042C67.9995 18.4042 67.2705 18.9172 66.5685 18.9172C65.3535 18.9172 64.7595 18.2152 64.7595 17.0002V10.2772H68.6475V8.22522H64.7595V4.41822H62.4915V8.22522H60.0615V10.2772ZM71.2778 20.6992H73.5458V8.22522H71.2778V20.6992ZM70.8728 4.22922C70.8728 5.06622 71.5748 5.76822 72.4118 5.76822C73.2488 5.76822 73.9508 5.06622 73.9508 4.22922C73.9508 3.39222 73.2488 2.69022 72.4118 2.69022C71.5748 2.69022 70.8728 3.39222 70.8728 4.22922ZM86.1989 17.1352C86.1989 17.1352 84.9839 18.9172 82.5539 18.9172C80.0429 18.9172 78.3959 16.9192 78.3959 14.4622C78.3959 12.0052 80.0429 10.0072 82.5539 10.0072C84.7679 10.0072 85.9829 11.5192 85.9829 11.5192L87.5219 10.1422C87.5219 10.1422 85.7399 7.90122 82.5539 7.90122C78.8819 7.90122 76.1279 10.8172 76.1279 14.4622C76.1279 18.1342 78.8819 21.0232 82.5539 21.0232C85.8479 21.0232 87.6569 18.6202 87.6569 18.6202L86.1989 17.1352Z" fill="#191A19"/>
</svg>
