<svg width="23" height="15" viewBox="0 0 23 15" fill="none" xmlns="http://www.w3.org/2000/svg">
<rect x="8.37012" y="2.24316" width="6.03537" height="10.9579" fill="#373737"/>
<path fill-rule="evenodd" clip-rule="evenodd" d="M11.3901 2.24303C8.56206 -0.00234449 4.50088 0.324714 2.06064 2.99436C-0.37959 5.664 -0.37959 9.77992 2.06064 12.4496C4.50088 15.1192 8.56206 15.4463 11.3901 13.2009C9.72489 11.8805 8.75336 9.85963 8.75562 7.72099C8.75395 5.58304 9.72542 3.56304 11.3901 2.24303Z" fill="#191A19"/>
<path fill-rule="evenodd" clip-rule="evenodd" d="M18.665 13.9885C16.2896 15.1544 13.4638 14.8477 11.3877 13.1987C13.0517 11.8776 14.0232 9.85786 14.0232 7.71979C14.0232 5.58172 13.0517 3.56199 11.3877 2.24085C13.4641 0.591656 16.2903 0.285151 18.6658 1.45154C21.0414 2.61793 22.549 5.05239 22.5483 7.72075C22.5483 10.3888 21.0403 12.8225 18.665 13.9885Z" fill="#686868"/>
</svg>
