<svg width="13" height="13" viewBox="0 0 13 13" fill="none" xmlns="http://www.w3.org/2000/svg">
<path fill-rule="evenodd" clip-rule="evenodd" d="M11.3541 2.88086C11.7208 3.3936 12.0108 3.9666 12.2074 4.58262L6.5 6.4698L11.3541 2.88086Z" fill="#2FB571"/>
<path fill-rule="evenodd" clip-rule="evenodd" d="M6.5 0.364258C7.14729 0.364258 7.77045 0.468981 8.35449 0.661975L6.5 6.47014V0.364258Z" fill="#3662AE"/>
<path fill-rule="evenodd" clip-rule="evenodd" d="M0.792555 8.3569C0.602908 7.76255 0.5 7.12841 0.5 6.46973H6.5L0.792555 8.3569Z" fill="#8B1B52"/>
<path fill-rule="evenodd" clip-rule="evenodd" d="M2.97291 11.4095C2.4641 11.0326 2.01583 10.5765 1.64551 10.0587L6.49963 6.46973L2.97291 11.4095Z" fill="#C92026"/>
<path fill-rule="evenodd" clip-rule="evenodd" d="M12.2074 8.35691C12.0108 8.97292 11.7208 9.54593 11.3541 10.0587L6.5 6.46973L12.2074 8.35691Z" fill="#DBE136"/>
<path fill-rule="evenodd" clip-rule="evenodd" d="M12.5 6.46973C12.5 7.12843 12.3971 7.76257 12.2074 8.35692L6.5 6.46973H12.5Z" fill="#99C93C"/>
<path fill-rule="evenodd" clip-rule="evenodd" d="M10.0267 11.4095C9.52288 11.7827 8.95982 12.0779 8.35447 12.2779L6.5 6.46973L10.0267 11.4095Z" fill="#FDCC23"/>
<path fill-rule="evenodd" clip-rule="evenodd" d="M11.3541 10.0587C10.9838 10.5765 10.5355 11.0326 10.0267 11.4095L6.5 6.46973L11.3541 10.0587Z" fill="#FBEA23"/>
<path fill-rule="evenodd" clip-rule="evenodd" d="M4.64551 0.661975C5.22957 0.468981 5.85273 0.364258 6.5 0.364258V6.47014L4.64551 0.661975Z" fill="#37419A"/>
<path fill-rule="evenodd" clip-rule="evenodd" d="M10.0267 1.53027C10.5355 1.90711 10.9838 2.36331 11.3541 2.88109L6.5 6.47003L10.0267 1.53027Z" fill="#38BFC2"/>
<path fill-rule="evenodd" clip-rule="evenodd" d="M0.792969 4.58262C0.989522 3.96661 1.2796 3.3936 1.64631 2.88086L6.50037 6.46982L0.792969 4.58262Z" fill="#4B2E8E"/>
<path fill-rule="evenodd" clip-rule="evenodd" d="M2.97363 1.53051C3.47749 1.15734 4.04055 0.862133 4.6459 0.662109L6.50037 6.47028L2.97363 1.53051Z" fill="#332E88"/>
<path fill-rule="evenodd" clip-rule="evenodd" d="M0.5 6.4702C0.5 5.8115 0.602908 5.17736 0.792555 4.58301L6.5 6.4702H0.5Z" fill="#68297B"/>
<path fill-rule="evenodd" clip-rule="evenodd" d="M1.64551 2.88109C2.01581 2.36331 2.4641 1.90713 2.97291 1.53027L6.49963 6.47003L1.64551 2.88109Z" fill="#3C2E89"/>
<path fill-rule="evenodd" clip-rule="evenodd" d="M8.35447 0.662109C8.9598 0.862132 9.52288 1.15733 10.0267 1.53051L6.5 6.47026L8.35447 0.662109Z" fill="#3FAEE3"/>
<path fill-rule="evenodd" clip-rule="evenodd" d="M8.35449 12.2779C7.77043 12.4709 7.14727 12.5756 6.5 12.5756V6.46973L8.35449 12.2779Z" fill="#F89D24"/>
<path fill-rule="evenodd" clip-rule="evenodd" d="M4.6459 12.2779C4.04057 12.0779 3.4775 11.7827 2.97363 11.4095L6.50037 6.46973L4.6459 12.2779Z" fill="#E23226"/>
<path fill-rule="evenodd" clip-rule="evenodd" d="M6.5 12.5756C5.85271 12.5756 5.22955 12.4709 4.64551 12.2779L6.5 6.46973V12.5756Z" fill="#ED5F23"/>
<path fill-rule="evenodd" clip-rule="evenodd" d="M6.50037 6.46973L1.64631 10.0587C1.2796 9.54593 0.989522 8.97293 0.792969 8.35691L6.50037 6.46973Z" fill="#AE1F26"/>
<path fill-rule="evenodd" clip-rule="evenodd" d="M12.2074 4.58301C12.3971 5.17736 12.5 5.8115 12.5 6.4702H6.5L12.2074 4.58301Z" fill="#45B549"/>
</svg>
