<svg width="209" height="22" viewBox="0 0 209 22" fill="none" xmlns="http://www.w3.org/2000/svg">
<path fill-rule="evenodd" clip-rule="evenodd" d="M43.7773 19.4764H41.043V3.52588H46.2839C49.4512 3.52588 51.5703 5.57666 51.5703 8.49333C51.5703 10.8859 50.2943 12.7088 48.0156 13.2785L52.0033 19.4764H48.8132L45.0306 13.4608H43.7773V19.4764ZM43.7773 10.8631H45.9421C47.6966 10.8631 48.7904 10.0656 48.7904 8.49333C48.7904 6.92106 47.6966 6.12354 45.9421 6.12354H43.7773V10.8631Z" fill="white"/>
<path fill-rule="evenodd" clip-rule="evenodd" d="M54.0983 9.38216C54.0983 9.38216 56.1035 8.40234 58.3594 8.40234C61.4583 8.40234 63.2812 9.97461 63.2812 12.4355V19.4766H60.752V18.1094C60.752 18.1094 59.6354 19.75 57.1973 19.75C55.1693 19.75 53.3008 18.4284 53.3008 16.127C53.3008 14.0534 55.1921 12.5495 57.5391 12.5495C59.5215 12.5495 60.5469 13.3242 60.5469 13.3242V12.709C60.5469 11.2962 59.1797 10.8405 58.2227 10.8405C56.6504 10.8405 54.987 11.638 54.987 11.638L54.0983 9.38216ZM56.0811 16.0814C56.0811 17.2207 57.1976 17.4714 58.0407 17.4714C59.6813 17.4714 60.5472 16.2181 60.5472 16.2181V15.1016C60.5472 15.1016 59.5674 14.5547 58.0863 14.5547C57.2432 14.5547 56.0811 14.9193 56.0811 16.0814Z" fill="white"/>
<path fill-rule="evenodd" clip-rule="evenodd" d="M73.3962 2.25H76.1305V19.4766H73.6012V18.0638C73.6012 18.0638 72.667 19.75 70.3428 19.75C67.54 19.75 65.0791 17.403 65.0791 14.0762C65.0791 10.7493 67.54 8.40234 70.3428 8.40234C72.3936 8.40234 73.3962 9.8151 73.3962 9.8151V2.25ZM70.8216 17.1981C72.6217 17.1981 73.3965 15.6942 73.3965 15.6942V12.4585C73.3965 12.4585 72.6217 10.9546 70.8216 10.9546C68.9759 10.9546 67.8594 12.299 67.8594 14.0763C67.8594 15.8537 68.9759 17.1981 70.8216 17.1981Z" fill="white"/>
<path fill-rule="evenodd" clip-rule="evenodd" d="M80.7767 6.98942C79.7741 6.98942 78.9766 6.19189 78.9766 5.18929C78.9766 4.18669 79.7741 3.38916 80.7767 3.38916C81.7793 3.38916 82.5768 4.18669 82.5768 5.18929C82.5768 6.19189 81.7793 6.98942 80.7767 6.98942ZM82.1436 19.4766H79.4092V8.67578H82.1436V19.4766Z" fill="white"/>
<path fill-rule="evenodd" clip-rule="evenodd" d="M85.4001 9.38216C85.4001 9.38216 87.4053 8.40234 89.6611 8.40234C92.7601 8.40234 94.583 9.97461 94.583 12.4355V19.4766H92.0537V18.1094C92.0537 18.1094 90.9372 19.75 88.499 19.75C86.471 19.75 84.6025 18.4284 84.6025 16.127C84.6025 14.0534 86.4938 12.5495 88.8408 12.5495C90.8232 12.5495 91.8486 13.3242 91.8486 13.3242V12.709C91.8486 11.2962 90.4814 10.8405 89.5244 10.8405C87.9521 10.8405 86.2887 11.638 86.2887 11.638L85.4001 9.38216ZM87.3828 16.0814C87.3828 17.2207 88.4993 17.4714 89.3424 17.4714C90.9831 17.4714 91.849 16.2181 91.849 16.2181V15.1016C91.849 15.1016 90.8691 14.5547 89.388 14.5547C88.5449 14.5547 87.3828 14.9193 87.3828 16.0814Z" fill="white"/>
<path d="M96.2441 11.1367H98.3633V15.9219C98.3633 18.2233 99.9583 19.75 102.055 19.75C103.627 19.75 104.652 19.0436 104.652 19.0436L103.65 16.8105C103.65 16.8105 103.126 17.1979 102.51 17.1979C101.781 17.1979 101.098 16.8105 101.098 15.4889V11.1367H104.356V8.67578H101.098V5.46289H98.3633V8.67578H96.2441V11.1367Z" fill="white"/>
<path fill-rule="evenodd" clip-rule="evenodd" d="M105.653 14.0762C105.653 10.8861 108.205 8.40234 111.418 8.40234C114.631 8.40234 117.183 10.8861 117.183 14.0762C117.183 17.2435 114.631 19.75 111.418 19.75C108.205 19.75 105.653 17.2435 105.653 14.0762ZM108.434 14.0763C108.434 15.7625 109.573 17.1981 111.419 17.1981C113.264 17.1981 114.404 15.7625 114.404 14.0763C114.404 12.3901 113.264 10.9546 111.419 10.9546C109.573 10.9546 108.434 12.3901 108.434 14.0763Z" fill="white"/>
<path d="M124.519 8.40234C122.513 8.40234 121.579 10.248 121.579 10.248V8.67578H118.981V19.4766H121.716V12.4128C121.716 12.4128 122.468 10.9544 124.131 10.9544C124.929 10.9544 125.43 11.2051 125.43 11.2051L126.387 8.74414C126.387 8.74414 125.498 8.40234 124.519 8.40234Z" fill="white"/>
<path d="M126.636 17.7904C126.636 17.7904 128.345 19.75 131.512 19.75C134.269 19.75 136.229 18.2689 136.229 16.4232C136.229 14.1901 134.702 13.4837 132.56 13.028C130.737 12.6406 130.008 12.4811 130.008 11.8203C130.008 11.1595 130.942 10.7949 131.968 10.7949C133.426 10.7949 134.657 11.7292 134.657 11.7292L136.024 9.72396C136.024 9.72396 134.406 8.40234 131.968 8.40234C129.006 8.40234 127.319 10.0885 127.319 11.7747C127.319 13.8255 129.188 14.737 131.33 15.1927C132.97 15.5345 133.472 15.6712 133.472 16.3776C133.472 17.0384 132.537 17.3574 131.421 17.3574C129.598 17.3574 128.162 15.8079 128.162 15.8079L126.636 17.7904Z" fill="white"/>
<path fill-rule="evenodd" clip-rule="evenodd" d="M144.018 11.5011C144.018 6.78434 147.436 3.25244 152.084 3.25244C156.732 3.25244 160.15 6.78434 160.15 11.5011C160.15 16.2179 156.732 19.7498 152.084 19.7498C147.436 19.7498 144.018 16.2179 144.018 11.5011ZM146.798 11.5011C146.798 14.5773 148.871 17.1522 152.084 17.1522C155.297 17.1522 157.371 14.5773 157.371 11.5011C157.371 8.42497 155.297 5.8501 152.084 5.8501C148.871 5.8501 146.798 8.42497 146.798 11.5011Z" fill="white"/>
<path d="M167.873 8.40234C165.594 8.40234 164.637 10.248 164.637 10.248V8.67578H162.085V19.4766H164.819V12.3444C164.819 12.3444 165.549 10.9544 166.961 10.9544C168.146 10.9544 169.103 11.6152 169.103 13.1647V19.4766H171.838V12.4811C171.838 9.88346 169.969 8.40234 167.873 8.40234Z" fill="white"/>
<path d="M174.684 19.4766H177.418V2.25H174.684V19.4766Z" fill="white"/>
<path fill-rule="evenodd" clip-rule="evenodd" d="M182.065 6.98942C181.062 6.98942 180.265 6.19189 180.265 5.18929C180.265 4.18669 181.062 3.38916 182.065 3.38916C183.067 3.38916 183.865 4.18669 183.865 5.18929C183.865 6.19189 183.067 6.98942 182.065 6.98942ZM183.432 19.4766H180.697V8.67578H183.432V19.4766Z" fill="white"/>
<path d="M192.179 8.40234C189.901 8.40234 188.944 10.248 188.944 10.248V8.67578H186.392V19.4766H189.126V12.3444C189.126 12.3444 189.855 10.9544 191.268 10.9544C192.453 10.9544 193.41 11.6152 193.41 13.1647V19.4766H196.144V12.4811C196.144 9.88346 194.276 8.40234 192.179 8.40234Z" fill="white"/>
<path fill-rule="evenodd" clip-rule="evenodd" d="M197.942 14.0762C197.942 10.9089 200.244 8.40234 203.366 8.40234C206.328 8.40234 208.812 10.7038 208.812 14.0306C208.812 14.2357 208.812 14.6458 208.789 15.056H200.722C200.927 16.013 202.044 17.2435 203.753 17.2435C205.644 17.2435 206.715 16.1497 206.715 16.1497L208.082 18.2005C208.082 18.2005 206.373 19.75 203.753 19.75C200.472 19.75 197.942 17.2435 197.942 14.0762ZM203.366 10.8862C201.611 10.8862 200.814 12.1167 200.723 13.0737H206.077C206.032 12.1395 205.166 10.8862 203.366 10.8862Z" fill="white"/>
<path d="M30.1937 19.6731V2.32666H26.8389V19.6731H30.1937Z" fill="#356C3F"/>
<path d="M21.2474 19.6731V2.32666H17.8926V19.6731H21.2474Z" fill="#356C3F"/>
<path d="M12.3011 19.6731V2.32666H8.94629V19.6731H12.3011Z" fill="#356C3F"/>
<path d="M3.35484 19.6731V2.32666H0V19.6731H3.35484Z" fill="#356C3F"/>
<path d="M7.82749 22V0H4.47266V22H7.82749Z" fill="#356C3F"/>
<path d="M16.7738 22V0H13.4189V22H16.7738Z" fill="#356C3F"/>
<path d="M25.7201 22V0H22.3652V22H25.7201Z" fill="#356C3F"/>
</svg>
