<svg width="12" height="14" viewBox="0 0 12 14" fill="none" xmlns="http://www.w3.org/2000/svg">
<path fill-rule="evenodd" clip-rule="evenodd" d="M6.61775 0.12793C7.70407 0.12793 8.99249 0.163236 9.85445 0.923356C10.4302 1.43116 10.7323 2.24022 10.6625 3.10874C10.426 6.05395 8.6643 7.70358 6.30188 7.70358H4.39954C4.07582 7.70358 3.8612 7.9181 3.76991 8.4992L3.23903 11.876C3.20461 12.0951 3.10964 12.2242 2.93629 12.2398H0.560254C0.296604 12.2398 0.202919 12.0381 0.27184 11.6013L1.98283 0.768707C2.05136 0.334593 2.28885 0.12793 2.76066 0.12793H6.61775Z" fill="#191A19"/>
<path fill-rule="evenodd" clip-rule="evenodd" d="M9.09453 3.51904C11.1632 3.51904 11.9421 4.56619 11.8218 6.10721C11.6235 8.64754 10.0876 10.0522 8.05037 10.0522H7.02173C6.74256 10.0522 6.5547 10.2368 6.47861 10.7384L6.03744 13.6506C6.0088 13.8398 5.90934 13.9509 5.75987 13.9644H3.34375C3.1164 13.9644 3.03554 13.7905 3.09502 13.4137L4.5705 4.0717C4.62958 3.69726 4.83435 3.51904 5.24132 3.51904H9.09453Z" fill="#686868"/>
<path fill-rule="evenodd" clip-rule="evenodd" d="M4.3151 4.07163C4.37427 3.69729 4.57915 3.51907 4.98611 3.51907H8.83932C9.47722 3.51907 9.99248 3.61863 10.3964 3.80202C10.0092 6.42331 8.31381 7.8797 6.09382 7.8797H4.19138C3.94106 7.8797 3.75398 8.00769 3.6416 8.33489L4.3151 4.07163Z" fill="#373737"/>
</svg>
