<svg width="26" height="9" viewBox="0 0 26 9" fill="none" xmlns="http://www.w3.org/2000/svg">
<path fill-rule="evenodd" clip-rule="evenodd" d="M9.15918 8.15761L10.4106 0.62207H12.4111L11.1599 8.15761H9.15918Z" fill="#191A19"/>
<path fill-rule="evenodd" clip-rule="evenodd" d="M16.6172 0.484863C14.6415 0.484863 13.2502 1.51093 13.2416 2.97789C13.2252 4.06021 14.2378 4.66136 14.9951 5.02224C15.7691 5.391 16.0322 5.63169 16.0322 5.9604C16.0244 6.46522 15.4068 6.69793 14.8308 6.69793C14.032 6.69793 13.604 6.57795 12.9536 6.29709L12.6901 6.17669L12.4102 7.86826C12.8794 8.07645 13.7439 8.26121 14.6415 8.2693C16.7408 8.2693 18.1074 7.25912 18.1236 5.69584C18.1316 4.83801 17.597 4.18071 16.4443 3.6436C15.7445 3.29881 15.316 3.06632 15.316 2.71354C15.3242 2.39283 15.6784 2.06434 16.4683 2.06434C17.1187 2.04825 17.5966 2.20051 17.9587 2.35287L18.1396 2.43289L18.4117 0.805681C18.0171 0.65321 17.3912 0.484863 16.6172 0.484863Z" fill="#191A19"/>
<path fill-rule="evenodd" clip-rule="evenodd" d="M21.8705 3.37967C21.8622 3.39576 22.035 2.93878 22.1338 2.65823L22.2736 3.30754C22.2736 3.30754 22.6525 5.1113 22.7347 5.48806C22.422 5.48806 21.4669 5.48806 21.0718 5.48806C21.2365 5.05515 21.8705 3.37967 21.8705 3.37967ZM21.994 0.62207C21.5168 0.62207 21.1542 0.758239 20.9483 1.2473L17.9766 8.15751H20.0758C20.0758 8.15751 20.4214 7.22745 20.4957 7.02713C20.726 7.02713 22.7682 7.02713 23.0645 7.02713C23.1219 7.29169 23.3032 8.15751 23.3032 8.15751H25.1556L23.5416 0.62207H21.994Z" fill="#191A19"/>
<path fill-rule="evenodd" clip-rule="evenodd" d="M5.52903 5.76059L5.31492 4.71844C4.95268 3.51593 3.81662 2.20943 2.54883 1.5598L4.34351 8.14962H6.4592L9.60395 0.62207H7.48837V0.62207L5.52903 5.76059Z" fill="#191A19"/>
<path fill-rule="evenodd" clip-rule="evenodd" d="M0.489962 0.62207L0.457031 0.774328C2.968 1.39966 4.63096 2.90701 5.31419 4.71876L4.61444 1.2555C4.49923 0.774222 4.1452 0.637946 3.70889 0.62207H0.489962Z" fill="#686868"/>
</svg>
