<svg width="58" height="57" viewBox="0 0 58 57" fill="none" xmlns="http://www.w3.org/2000/svg">
<path fill-rule="evenodd" clip-rule="evenodd" d="M52.1919 11.7471C53.9338 14.1404 55.3117 16.8149 56.2453 19.6903L29.1348 28.499L52.1919 11.7471Z" fill="#2FB571"/>
<path fill-rule="evenodd" clip-rule="evenodd" d="M29.1348 0C32.2094 0 35.1693 0.488814 37.9435 1.38964L29.1348 28.5002V0Z" fill="#3662AE"/>
<path fill-rule="evenodd" clip-rule="evenodd" d="M2.02441 37.3087C1.12358 34.5345 0.634766 31.5745 0.634766 28.5H29.1349L2.02441 37.3087Z" fill="#8B1B52"/>
<path fill-rule="evenodd" clip-rule="evenodd" d="M12.3852 51.5571C9.9684 49.7982 7.83911 47.6688 6.08008 45.252L29.1372 28.5L12.3852 51.5571Z" fill="#C92026"/>
<path fill-rule="evenodd" clip-rule="evenodd" d="M56.2453 37.3087C55.3117 40.184 53.9338 42.8587 52.1919 45.252L29.1348 28.5L56.2453 37.3087Z" fill="#DBE136"/>
<path fill-rule="evenodd" clip-rule="evenodd" d="M57.6349 28.5C57.6349 31.5746 57.1461 34.5345 56.2453 37.3087L29.1348 28.5H57.6349Z" fill="#99C93C"/>
<path fill-rule="evenodd" clip-rule="evenodd" d="M45.8867 51.5571C43.4934 53.299 40.8189 54.6769 37.9435 55.6105L29.1348 28.5L45.8867 51.5571Z" fill="#FDCC23"/>
<path fill-rule="evenodd" clip-rule="evenodd" d="M52.1919 45.252C50.4329 47.6688 48.3036 49.7981 45.8867 51.5571L29.1348 28.5L52.1919 45.252Z" fill="#FBEA23"/>
<path fill-rule="evenodd" clip-rule="evenodd" d="M20.3301 1.38964C23.1043 0.488814 26.0643 0 29.1388 0V28.5002L20.3301 1.38964Z" fill="#37419A"/>
<path fill-rule="evenodd" clip-rule="evenodd" d="M45.8867 5.44434C48.3036 7.20328 50.4329 9.33265 52.1919 11.7495L29.1348 28.5015L45.8867 5.44434Z" fill="#38BFC2"/>
<path fill-rule="evenodd" clip-rule="evenodd" d="M2.02344 19.6903C2.95708 16.815 4.33499 14.1404 6.07685 11.7471L29.134 28.4991L2.02344 19.6903Z" fill="#4B2E8E"/>
<path fill-rule="evenodd" clip-rule="evenodd" d="M12.3828 5.44208C14.7761 3.70022 17.4507 2.32231 20.3261 1.38867L29.1348 28.4992L12.3828 5.44208Z" fill="#332E88"/>
<path fill-rule="evenodd" clip-rule="evenodd" d="M0.634766 28.5031C0.634766 25.4285 1.12358 22.4686 2.02441 19.6943L29.1349 28.5031H0.634766Z" fill="#68297B"/>
<path fill-rule="evenodd" clip-rule="evenodd" d="M6.08008 11.7495C7.83903 9.33265 9.9684 7.20336 12.3852 5.44434L29.1372 28.5015L6.08008 11.7495Z" fill="#3C2E89"/>
<path fill-rule="evenodd" clip-rule="evenodd" d="M37.9435 1.38867C40.8188 2.32231 43.4934 3.70022 45.8867 5.44208L29.1348 28.4992L37.9435 1.38867Z" fill="#3FAEE3"/>
<path fill-rule="evenodd" clip-rule="evenodd" d="M37.9435 55.6105C35.1692 56.5114 32.2093 57.0002 29.1348 57.0002V28.5L37.9435 55.6105Z" fill="#F89D24"/>
<path fill-rule="evenodd" clip-rule="evenodd" d="M20.3261 55.6105C17.4507 54.6769 14.7762 53.299 12.3828 51.5571L29.1348 28.5L20.3261 55.6105Z" fill="#E23226"/>
<path fill-rule="evenodd" clip-rule="evenodd" d="M29.1388 57.0002C26.0642 57.0002 23.1043 56.5114 20.3301 55.6105L29.1388 28.5V57.0002Z" fill="#ED5F23"/>
<path fill-rule="evenodd" clip-rule="evenodd" d="M29.134 28.5L6.07685 45.252C4.33499 42.8587 2.95708 40.1841 2.02344 37.3087L29.134 28.5Z" fill="#AE1F26"/>
<path fill-rule="evenodd" clip-rule="evenodd" d="M56.2453 19.6943C57.1461 22.4686 57.6349 25.4285 57.6349 28.5031H29.1348L56.2453 19.6943Z" fill="#45B549"/>
</svg>
