<svg width="18" height="18" viewBox="0 0 18 18" fill="none" xmlns="http://www.w3.org/2000/svg">
<path fill-rule="evenodd" clip-rule="evenodd" d="M14.356 8.78909L17.399 3.17524C17.7135 2.60434 17.3055 1.89504 16.6595 1.89504H4.07948L3.28048 0.165039H0.500977V1.89504H2.20098L5.26099 8.46039L4.11348 10.571C3.49298 11.7301 4.30898 13.14 5.60099 13.14H15.801V11.41H5.60099L6.53599 9.68004H12.8685C13.506 9.68004 14.067 9.32539 14.356 8.78909ZM15.2145 3.62504L12.8685 7.95004H6.90149L4.88699 3.62504H15.2145ZM3.90948 15.735C3.90948 16.6865 4.66598 17.465 5.60099 17.465C6.53599 17.465 7.30099 16.6865 7.30099 15.735C7.30099 14.7835 6.53599 14.005 5.60099 14.005C4.66598 14.005 3.90948 14.7835 3.90948 15.735ZM12.4095 15.735C12.4095 16.6865 13.166 17.465 14.101 17.465C15.036 17.465 15.801 16.6865 15.801 15.735C15.801 14.7835 15.036 14.005 14.101 14.005C13.166 14.005 12.4095 14.7835 12.4095 15.735Z" fill="#191A19"/>
</svg>
