<svg width="198" height="12" viewBox="0 0 198 12" fill="none" xmlns="http://www.w3.org/2000/svg">
<path d="M0.324219 11.8011H2.31317V7.42542H3.22477L5.97615 11.8011H8.2966L5.39604 7.29282C7.0535 6.87845 7.98168 5.55249 7.98168 3.81215C7.98168 1.69061 6.44024 0.198894 4.13637 0.198894H0.324219V11.8011ZM3.88775 5.53591H2.31317V2.0884H3.88775C5.164 2.0884 5.95958 2.66851 5.95958 3.81215C5.95958 4.9558 5.164 5.53591 3.88775 5.53591Z" fill="#1E1E1E"/>
<path d="M9.37591 11.8011H11.3814L12.4422 9.04972H17.3483L18.4091 11.8011H20.4146L15.9063 0.198894H13.8842L9.37591 11.8011ZM14.8953 2.70166L16.6356 7.22652H13.1549L14.8953 2.70166Z" fill="#1E1E1E"/>
<path d="M25.9977 0.198894H22.2518V11.8011H25.9977C29.3789 11.8011 31.7325 9.34807 31.7325 6C31.7325 2.65193 29.3789 0.198894 25.9977 0.198894ZM26.0308 9.9116H24.2408V2.0884H26.0308C28.285 2.0884 29.7104 3.87845 29.7104 6C29.7104 8.10497 28.285 9.9116 26.0308 9.9116Z" fill="#1E1E1E"/>
<path d="M34.265 11.8011H36.254V0.198894H34.265V11.8011Z" fill="#1E1E1E"/>
<path d="M38.326 11.8011H40.3315L41.3923 9.04972H46.2984L47.3591 11.8011H49.3647L44.8564 0.198894H42.8343L38.326 11.8011ZM43.8453 2.70166L45.5856 7.22652H42.105L43.8453 2.70166Z" fill="#1E1E1E"/>
<path d="M52.7912 11.8011H54.7802V2.0884H57.9791V0.198894H49.5923V2.0884H52.7912V11.8011Z" fill="#1E1E1E"/>
<path d="M64.837 0C61.4557 0 58.9695 2.56906 58.9695 6C58.9695 9.43094 61.4557 12 64.837 12C68.2182 12 70.7044 9.43094 70.7044 6C70.7044 2.56906 68.2182 0 64.837 0ZM64.837 10.1105C62.4999 10.1105 60.9916 8.23757 60.9916 6C60.9916 3.76243 62.4999 1.8895 64.837 1.8895C67.174 1.8895 68.6823 3.76243 68.6823 6C68.6823 8.23757 67.174 10.1105 64.837 10.1105Z" fill="#1E1E1E"/>
<path d="M73.0162 11.8011H75.0051V7.42542H75.9167L78.6681 11.8011H80.9885L78.088 7.29282C79.7454 6.87845 80.6736 5.55249 80.6736 3.81215C80.6736 1.69061 79.1322 0.198894 76.8283 0.198894H73.0162V11.8011ZM76.5797 5.53591H75.0051V2.0884H76.5797C77.8559 2.0884 78.6515 2.66851 78.6515 3.81215C78.6515 4.9558 77.8559 5.53591 76.5797 5.53591Z" fill="#1E1E1E"/>
<path d="M88.996 8.76796C88.996 9.71271 87.9684 10.1105 86.9739 10.1105C85.217 10.1105 84.2225 8.37017 84.2225 8.37017L82.7308 9.62983C82.7308 9.62983 84.0734 12 86.9739 12C89.1618 12 91.0181 10.8729 91.0181 8.76796C91.0181 6.66298 89.543 5.8674 87.7695 5.20442C86.1783 4.60773 85.2667 4.29282 85.2667 3.28177C85.2667 2.50276 86.0457 1.8895 87.0402 1.8895C88.4822 1.8895 89.4435 3.19889 89.4435 3.19889L90.8192 1.83978C90.8192 1.83978 89.4601 0 87.0402 0C84.7032 0 83.2446 1.64088 83.2446 3.28177C83.2446 5.43646 85.1673 6.36464 86.8745 6.96133C88.2502 7.44199 88.996 7.79006 88.996 8.76796Z" fill="#1E1E1E"/>
<path d="M98.7723 0C95.3911 0 92.9049 2.56906 92.9049 6C92.9049 9.43094 95.3911 12 98.7723 12C102.154 12 104.64 9.43094 104.64 6C104.64 2.56906 102.154 0 98.7723 0ZM98.7723 10.1105C96.4353 10.1105 94.927 8.23757 94.927 6C94.927 3.76243 96.4353 1.8895 98.7723 1.8895C101.109 1.8895 102.618 3.76243 102.618 6C102.618 8.23757 101.109 10.1105 98.7723 10.1105Z" fill="#1E1E1E"/>
<path d="M106.952 0.198894V11.8011H108.94V3.82873L114.742 11.8011H116.532V0.198894H114.543V8.18785L108.742 0.198894H106.952Z" fill="#1E1E1E"/>
<path d="M119.493 11.8011H126.422V9.9116H121.482V0.198894H119.493V11.8011Z" fill="#1E1E1E"/>
<path d="M128.528 11.8011H130.517V0.198894H128.528V11.8011Z" fill="#1E1E1E"/>
<path d="M133.716 0.198894V11.8011H135.705V3.82873L141.507 11.8011H143.297V0.198894H141.308V8.18785L135.507 0.198894H133.716Z" fill="#1E1E1E"/>
<path d="M148.247 2.0884H153.286V0.198894H146.258V11.8011H153.385V9.9116H148.247V6.79558H152.888V4.90608H148.247V2.0884Z" fill="#1E1E1E"/>
<path d="M155.457 10.6906C155.457 11.4199 156.038 12 156.767 12C157.496 12 158.076 11.4199 158.076 10.6906C158.076 9.96133 157.496 9.38122 156.767 9.38122C156.038 9.38122 155.457 9.96133 155.457 10.6906Z" fill="#1E1E1E"/>
<path d="M165.897 10.1436C163.609 10.1436 162.035 8.23757 162.035 6C162.035 3.76243 163.609 1.85635 165.897 1.85635C167.803 1.85635 168.847 3.1326 168.847 3.1326L170.189 1.8232C170.189 1.8232 168.681 0 165.897 0C162.549 0 160.013 2.56906 160.013 6C160.013 9.43094 162.549 12 165.897 12C168.83 12 170.355 10.0276 170.355 10.0276L169.029 8.71823C169.029 8.71823 167.935 10.1436 165.897 10.1436Z" fill="#1E1E1E"/>
<path d="M177.597 0C174.215 0 171.729 2.56906 171.729 6C171.729 9.43094 174.215 12 177.597 12C180.978 12 183.464 9.43094 183.464 6C183.464 2.56906 180.978 0 177.597 0ZM177.597 10.1105C175.259 10.1105 173.751 8.23757 173.751 6C173.751 3.76243 175.259 1.8895 177.597 1.8895C179.934 1.8895 181.442 3.76243 181.442 6C181.442 8.23757 179.934 10.1105 177.597 10.1105Z" fill="#1E1E1E"/>
<path d="M185.776 0.198894V11.8011H187.765V4.01105L191.395 9.53039L195.024 4.01105V11.8011H197.013V0.198894H195.174L191.395 6.03315L187.615 0.198894H185.776Z" fill="#1E1E1E"/>
</svg>
